# xmcd CD database file
#
# Track frame offsets:
#	150
#	16276
#	30055
#	45356
#	58369
#	79194
#	93541
#	107113
#	123150
#	136452
#	151100
#	166579
#	184334
#	206186
#	217745
#	232785
#
# Disc length: 3331 seconds
#
# Revision: 1
# Processed by: cddbd v1.5.2PL0 Copyright (c) Steve Scherf et al.
# Submitted via: CDex 1.51
#
DISCID=c30d0110
DTITLE=Various Artist - The Music Of Nashville - Season 1 - Bonus Tracks 2
DYEAR=2013
DGENRE=Country
TTITLE0=Hayden Panettiere - Consider Me (Acoustic Version)
TTITLE1=Clare Bowen and Sam Palladio - One Works Better
TTITLE2=Hayden Panettiere - I'm A Girl
TTITLE3=Hayden Panettiere - Used
TTITLE4=Clare Bowen and Sam Palladio - Casino
TTITLE5=Jonathan Jackson - Keep Asking Why
TTITLE6=Chris Carmack and Sam Palladio - Tough All Over
TTITLE7=Hayden Panettiere - Hangin' On A Lie
TTITLE8=Connie Britton and Michael Huisman - Postcard From Mexico
TTITLE9=Jonathan Jackson - The Morning Of The Rain (Roadie Version)
TTITLE10=Connie Brritton - The End Of The Day
TTITLE11=Connie Britton - It's My Life
TTITLE12=Chris Carmack - A Showman's Life
TTITLE13=Sam Palladio - If Momma Coulda Seen Me
TTITLE14=Clare Bowen and Jonathan Jackson - Moon Is High
TTITLE15=Sam Palladio - Shine (Acoustic Version)
EXTD=YEAR: 2013
EXTT0=
EXTT1=
EXTT2=
EXTT3=
EXTT4=
EXTT5=
EXTT6=
EXTT7=
EXTT8=
EXTT9=
EXTT10=
EXTT11=
EXTT12=
EXTT13=
EXTT14=
EXTT15=
PLAYORDER=
